<svg width="24" height="24" viewBox="0 0 24 24" fill="none" xmlns="http://www.w3.org/2000/svg">
<path fill-rule="evenodd" clip-rule="evenodd" d="M11.9997 10.1313L7.25746 5.38926C6.74102 4.87284 5.90372 4.87285 5.3873 5.38929C4.87088 5.90573 4.8709 6.74303 5.38734 7.25945L10.1295 12.0014L5.38752 16.7431C4.87108 17.2596 4.87107 18.0969 5.38749 18.6133C5.90391 19.1297 6.7412 19.1298 7.25764 18.6133L11.9997 13.8715L16.7417 18.6133C17.2581 19.1298 18.0954 19.1297 18.6118 18.6133C19.1282 18.0969 19.1282 17.2596 18.6118 16.7431L13.8698 12.0014L18.612 7.25945C19.1284 6.74303 19.1284 5.90573 18.612 5.38929C18.0956 4.87285 17.2583 4.87284 16.7418 5.38926L11.9997 10.1313Z" fill="#545D68"/>
</svg>
