<svg width="40" height="41" viewBox="0 0 40 41" fill="none" xmlns="http://www.w3.org/2000/svg">
<path fill-rule="evenodd" clip-rule="evenodd" d="M10.3882 9.82001C9.71734 9.82001 9.1735 10.3639 9.17352 11.0347L9.17362 13.6768C9.17364 14.3477 8.62982 14.8915 7.95897 14.8916C7.28811 14.8916 6.74426 14.3478 6.74423 13.6769L6.74414 11.0348C6.74407 9.02221 8.3756 7.39062 10.3882 7.39062H13.2122C13.8831 7.39062 14.4269 7.93446 14.4269 8.60532C14.4269 9.27617 13.8831 9.82001 13.2122 9.82001H10.3882ZM29.403 9.82001C30.0738 9.82001 30.6177 10.3639 30.6176 11.0347L30.6176 13.6768C30.6175 14.3477 31.1613 14.8915 31.8322 14.8916C32.5031 14.8916 33.0469 14.3478 33.0469 13.6769L33.047 11.0348C33.0471 9.02221 31.4156 7.39062 29.403 7.39062H26.579C25.9081 7.39062 25.3643 7.93446 25.3643 8.60532C25.3643 9.27617 25.9081 9.82001 26.579 9.82001H29.403ZM21.0291 17.6102C21.0291 16.9841 20.5216 16.4765 19.8954 16.4765C19.2693 16.4765 18.7617 16.9841 18.7617 17.6102V21.0276H18.3784C17.7523 21.0276 17.2447 21.5352 17.2447 22.1613C17.2447 22.7875 17.7523 23.2951 18.3784 23.2951H19.8803C20.5148 23.2951 21.0291 22.7807 21.0291 22.1462V17.6102ZM26.5075 25.6192C26.9818 25.1448 26.9818 24.3757 26.5075 23.9014C26.0331 23.427 25.264 23.427 24.7896 23.9014L24.5522 24.1388C21.9797 26.7113 17.8088 26.7113 15.2363 24.1388L15.0016 23.9041C14.5273 23.4297 13.7582 23.4296 13.2838 23.9039C12.8094 24.3783 12.8093 25.1473 13.2836 25.6218L13.5185 25.8567C17.0397 29.3779 22.7488 29.3779 26.27 25.8567L26.5075 25.6192ZM30.6176 30.19C30.6177 30.8608 30.0738 31.4047 29.403 31.4047H26.579C25.9081 31.4047 25.3643 31.9485 25.3643 32.6194C25.3643 33.2902 25.9081 33.8341 26.579 33.8341H29.403C31.4156 33.8341 33.0471 32.2025 33.047 30.1899L33.0469 27.5478C33.0469 26.8769 32.5031 26.3331 31.8322 26.3331C31.1613 26.3332 30.6175 26.877 30.6176 27.5479L30.6176 30.19ZM9.17352 30.19C9.1735 30.8608 9.71734 31.4047 10.3882 31.4047H13.2122C13.8831 31.4047 14.4269 31.9485 14.4269 32.6194C14.4269 33.2902 13.8831 33.8341 13.2122 33.8341H10.3882C8.3756 33.8341 6.74407 32.2025 6.74414 30.1899L6.74423 27.5478C6.74426 26.8769 7.28811 26.3331 7.95897 26.3331C8.62982 26.3332 9.17364 26.877 9.17362 27.5479L9.17352 30.19ZM15.0303 14.2049C15.7012 14.2049 16.245 14.7487 16.245 15.4196V18.5029C16.245 19.1738 15.7012 19.7176 15.0303 19.7176C14.3594 19.7176 13.8156 19.1738 13.8156 18.5029V15.4196C13.8156 14.7487 14.3594 14.2049 15.0303 14.2049ZM25.9755 15.4196C25.9755 14.7487 25.4316 14.2049 24.7608 14.2049C24.0899 14.2049 23.5461 14.7487 23.5461 15.4196V18.5029C23.5461 19.1738 24.0899 19.7176 24.7608 19.7176C25.4316 19.7176 25.9755 19.1738 25.9755 18.5029V15.4196Z" fill="#003087"/>
</svg>
