<svg width="29" height="32" viewBox="0 0 29 32" fill="none" xmlns="http://www.w3.org/2000/svg">
<path fill-rule="evenodd" clip-rule="evenodd" d="M26.2778 6.70648C25.8358 7.22829 25.0545 7.29298 24.5327 6.85099C18.4703 1.7158 9.54647 1.70162 3.50579 6.84871C2.98528 7.29222 2.20378 7.2298 1.76026 6.70929C1.31675 6.18877 1.37917 5.40727 1.89968 4.96376C8.87054 -0.975905 19.1519 -0.952252 26.1333 4.96137C26.6551 5.40336 26.7198 6.18468 26.2778 6.70648ZM17.9828 8.13991C15.3586 7.08922 12.4313 7.08502 9.80406 8.12818C4.6909 10.1584 1.85237 15.643 3.14757 20.9898L3.40154 22.0383C3.56254 22.7029 3.15427 23.3722 2.48965 23.5332C1.82503 23.6942 1.15573 23.2859 0.994737 22.6213L0.740762 21.5728C-0.844925 15.0268 2.63023 8.31211 8.89019 5.82656C12.1067 4.54943 15.6905 4.55458 18.9033 5.84092L19.1885 5.95512C25.303 8.40327 28.9519 14.7139 28.0232 21.2345L27.8314 22.5814L27.7849 22.7515C27.0447 25.4573 24.5861 27.3336 21.7809 27.3336C18.4641 27.3336 15.73 24.733 15.5641 21.4204L15.41 18.3451C15.3749 17.6431 14.7954 17.0919 14.0926 17.0919C13.3268 17.0919 12.722 17.7417 12.7768 18.5055L13.0164 21.8431C13.0515 22.3319 13.1433 22.815 13.2899 23.2826L13.5868 24.2293C14.1856 26.139 15.4275 27.6713 17.1688 28.7313C17.7529 29.0868 17.9382 29.8486 17.5827 30.4327C17.2271 31.0169 16.4653 31.2022 15.8812 30.8466C13.6588 29.4938 12.0134 27.4883 11.2238 24.9703L10.9269 24.0236C10.7229 23.3729 10.5951 22.7006 10.5463 22.0204L10.3068 18.6828C10.149 16.4852 11.8893 14.6155 14.0926 14.6155C16.115 14.6155 17.7822 16.2013 17.8833 18.2212L18.0374 21.2965C18.1373 23.2912 19.7837 24.8572 21.7809 24.8572C23.47 24.8572 24.9505 23.7273 25.3962 22.098L25.4017 22.0781L25.5715 20.8853C26.3393 15.4948 23.3228 10.278 18.268 8.25411L17.9828 8.13991ZM14.207 9.71925C9.2528 9.71925 5.23662 13.7354 5.23658 18.6896L5.23657 19.4048L5.23661 19.4136C5.25396 21.8618 5.5583 26.2899 8.17328 29.6181C8.59577 30.1558 9.37418 30.2492 9.9119 29.8267C10.4496 29.4043 10.543 28.6258 10.1205 28.0881C8.05697 25.4618 7.73026 21.7853 7.71299 19.4004L7.71299 18.6896C7.71302 15.1031 10.6205 12.1957 14.207 12.1957C17.7935 12.1957 20.701 15.1031 20.701 18.6897V20.9582C20.701 21.6421 21.2554 22.1964 21.9392 22.1964C22.6231 22.1964 23.1774 21.6421 23.1774 20.9582V18.6897C23.1774 13.7354 19.1612 9.71925 14.207 9.71925Z" fill="#003087"/>
</svg>
