<svg width="41" height="41" viewBox="0 0 41 41" fill="none" xmlns="http://www.w3.org/2000/svg">
<path fill-rule="evenodd" clip-rule="evenodd" d="M31.6387 31.9224C31.6672 31.595 31.5644 31.2697 31.353 31.0181C29.0391 28.2662 26.1634 26.3113 22.9672 25.2651C24.9083 24.0561 26.4028 22.2479 27.2246 20.1139C28.0464 17.98 28.1509 15.6364 27.5222 13.4378C26.8935 11.2392 25.5658 9.30514 23.7401 7.92827C21.9143 6.55141 19.6898 5.80664 17.403 5.80664C15.1163 5.80664 12.8918 6.55141 11.066 7.92827C9.24024 9.30514 7.91257 11.2392 7.28387 13.4378C6.65517 15.6364 6.75964 17.98 7.58148 20.1139C8.40332 22.2479 9.89781 24.0561 11.8388 25.2651C8.64273 26.3113 5.76699 28.2662 3.45464 31.0181C3.24324 31.2695 3.14037 31.5946 3.16867 31.9219C3.19697 32.2492 3.35412 32.5518 3.60555 32.7632C3.85697 32.9746 4.18208 33.0774 4.50935 33.0491C4.83662 33.0208 5.13924 32.8637 5.35064 32.6123C8.46473 28.9038 12.7458 26.8623 17.403 26.8623C22.0602 26.8623 26.3413 28.9038 29.4554 32.6123C29.6668 32.8639 29.9695 33.0212 30.297 33.0497C30.6244 33.0781 30.9497 32.9754 31.2013 32.764C31.4529 32.5526 31.6103 32.2498 31.6387 31.9224ZM21.8745 23.0295C20.5509 23.9139 18.9949 24.3859 17.403 24.3859C15.2692 24.3835 13.2235 23.5347 11.7147 22.0259C10.2059 20.5171 9.35715 18.4714 9.3547 16.3376C9.3547 14.7458 9.82672 13.1897 10.7111 11.8662C11.5954 10.5426 12.8524 9.51105 14.3231 8.90189C15.7937 8.29273 17.412 8.13334 18.9732 8.44389C20.5344 8.75444 21.9685 9.52097 23.0941 10.6465C24.2197 11.7721 24.9862 13.2062 25.2967 14.7674C25.6073 16.3287 25.4479 17.9469 24.8387 19.4176C24.2296 20.8882 23.198 22.1452 21.8745 23.0295Z" fill="#003087"/>
<path fill-rule="evenodd" clip-rule="evenodd" d="M31.7604 18.1419C31.7604 16.4254 33.1519 15.0339 34.8683 15.0339C36.5848 15.0339 37.9762 16.4254 37.9762 18.1419C37.9762 19.5348 37.0598 20.7138 35.797 21.1087V22.5327H36.4071C36.92 22.5327 37.3358 22.9485 37.3358 23.4614C37.3358 23.9743 36.92 24.39 36.4071 24.39H35.797V25.1175L36.8823 25.1173C37.3952 25.1173 37.811 25.533 37.8111 26.0459C37.8112 26.5588 37.3954 26.9746 36.8826 26.9747L35.797 26.9748V27.1837C35.797 27.6966 35.3812 28.1123 34.8683 28.1123C34.3554 28.1123 33.9397 27.6966 33.9397 27.1837V21.1087C32.6768 20.7138 31.7604 19.5348 31.7604 18.1419ZM34.8683 16.8913C34.1776 16.8913 33.6177 17.4512 33.6177 18.1419C33.6177 18.8325 34.1776 19.3925 34.8683 19.3925C35.559 19.3925 36.1189 18.8325 36.1189 18.1419C36.1189 17.4512 35.559 16.8913 34.8683 16.8913Z" fill="#003087"/>
</svg>
