<svg width="83" height="24" viewBox="0 0 83 24" fill="none" xmlns="http://www.w3.org/2000/svg">
<g clip-path="url(#clip0_7551_6792)">
<path d="M9.35085 13.3872C11.0123 13.3857 12.6186 12.7868 13.8798 11.6986C15.141 10.6105 15.9742 9.1047 16.229 7.45295C16.7667 4.0099 14.0922 1.00394 10.3029 1.00394H4.19641C4.0819 1.00263 3.97077 1.04301 3.88351 1.11763C3.79626 1.19225 3.73874 1.29607 3.72157 1.40999L0.999526 18.7901C0.989586 18.8536 0.993438 18.9185 1.01081 18.9804C1.02819 19.0423 1.05868 19.0997 1.10019 19.1486C1.1417 19.1975 1.19324 19.2368 1.25127 19.2638C1.30931 19.2907 1.37246 19.3047 1.43638 19.3048H4.6677C4.78222 19.3061 4.89334 19.2657 4.9806 19.1911C5.06786 19.1165 5.12537 19.0127 5.14254 18.8988L5.94266 13.7933C5.95983 13.6794 6.01734 13.5755 6.1046 13.5009C6.19186 13.4263 6.30298 13.3859 6.4175 13.3872H9.35085ZM12.0551 7.29651C11.8557 8.56959 10.8775 9.50708 9.0054 9.50708H6.61218L7.33751 4.87693H9.68799C11.6242 4.88051 12.2533 6.02939 12.0551 7.30008V7.29651Z" fill="#003087"/>
<path d="M30.232 6.47848H27.1645C27.05 6.47718 26.9389 6.51756 26.8516 6.59218C26.7644 6.66679 26.7069 6.77063 26.6897 6.88454L26.59 7.52466C26.59 7.52466 24.2074 4.90803 19.992 6.67554C17.5739 7.68827 16.4129 9.78062 15.9202 11.3129C15.9202 11.3129 14.3509 15.9705 17.8968 18.5346C17.8968 18.5346 21.185 20.9995 24.8876 18.3817L24.8235 18.7901C24.8136 18.8537 24.8175 18.9186 24.8348 18.9805C24.8522 19.0424 24.8827 19.0997 24.9242 19.1487C24.9657 19.1976 25.0173 19.2368 25.0753 19.2638C25.1333 19.2908 25.1965 19.3048 25.2604 19.3049H28.3279C28.4424 19.3062 28.5535 19.2658 28.6408 19.1912C28.7281 19.1165 28.7856 19.0127 28.8027 18.8988L30.6689 6.99321C30.6788 6.92968 30.675 6.86475 30.6576 6.80286C30.6402 6.74097 30.6097 6.6836 30.5682 6.63469C30.5267 6.58578 30.4752 6.5465 30.4171 6.51953C30.3591 6.49257 30.2959 6.47856 30.232 6.47848ZM25.721 13.0589C25.6009 13.8884 25.1859 14.646 24.5528 15.1911C23.9197 15.7362 23.1116 16.0318 22.2784 16.023C21.952 16.0267 21.6272 15.9788 21.3156 15.8809C19.9932 15.4534 19.2382 14.1743 19.4554 12.7878C19.5755 11.9559 19.9922 11.1964 20.6278 10.6508C21.2633 10.1052 22.0745 9.8108 22.9099 9.82242C23.2367 9.81918 23.562 9.86754 23.8739 9.96573C25.1915 10.3909 25.9418 11.6711 25.7246 13.0589H25.721Z" fill="#003087"/>
<path d="M53.5278 13.3872C55.1905 13.3871 56.7983 12.7889 58.061 11.7007C59.3236 10.6124 60.1579 9.10581 60.4131 7.45295C60.9496 4.0099 58.2763 1.00394 54.4858 1.00394H48.3805C48.266 1.00263 48.1549 1.04301 48.0676 1.11763C47.9804 1.19225 47.9228 1.29607 47.9057 1.40999L45.1753 18.7949C45.1654 18.8584 45.1692 18.9233 45.1866 18.9852C45.204 19.0471 45.2345 19.1045 45.276 19.1534C45.3175 19.2023 45.369 19.2416 45.4271 19.2685C45.4851 19.2955 45.5482 19.3095 45.6122 19.3096H48.8447C48.9592 19.3109 49.0703 19.2705 49.1576 19.1959C49.2448 19.1213 49.3023 19.0174 49.3195 18.9035L50.1208 13.7981C50.138 13.6842 50.1955 13.5803 50.2828 13.5057C50.37 13.4311 50.4811 13.3907 50.5957 13.392L53.5278 13.3872ZM56.2321 7.2965C56.0326 8.56959 55.0544 9.50708 53.1824 9.50708H50.7892L51.5157 4.87693H53.8662C55.8011 4.88051 56.4315 6.02939 56.2321 7.30008V7.2965Z" fill="#0070E0"/>
<path d="M74.408 6.47848H71.3429C71.2284 6.47718 71.1173 6.51756 71.03 6.59218C70.9427 6.66679 70.8852 6.77063 70.8681 6.88454L70.7672 7.52466C70.7672 7.52466 68.3858 4.90803 64.1704 6.67554C61.7522 7.68827 60.5912 9.78062 60.0974 11.3129C60.0974 11.3129 58.5292 15.9705 62.0751 18.5346C62.0751 18.5346 65.3634 20.9995 69.066 18.3817L69.0019 18.7901C68.992 18.8537 68.9958 18.9186 69.0132 18.9805C69.0306 19.0424 69.0611 19.0997 69.1026 19.1487C69.1441 19.1976 69.1956 19.2368 69.2537 19.2638C69.3117 19.2908 69.3749 19.3048 69.4388 19.3049H72.5063C72.6208 19.3062 72.7319 19.2658 72.8192 19.1912C72.9064 19.1165 72.964 19.0127 72.9811 18.8988L74.8473 6.99321C74.8572 6.92948 74.8533 6.86434 74.8358 6.80228C74.8183 6.74022 74.7876 6.68273 74.7458 6.63378C74.7041 6.58483 74.6522 6.5456 74.5939 6.51878C74.5356 6.49197 74.4721 6.47822 74.408 6.47848ZM69.897 13.0589C69.7784 13.8891 69.3637 14.6475 68.7303 15.1929C68.0969 15.7383 67.288 16.0333 66.4544 16.023C66.1276 16.0268 65.8024 15.9789 65.4904 15.8809C64.1668 15.4534 63.4118 14.1743 63.6291 12.7878C63.7489 11.958 64.1638 11.2001 64.7969 10.6548C65.43 10.1095 66.2383 9.81371 67.0717 9.82242C67.3985 9.81898 67.7238 9.86735 68.0356 9.96573C69.3676 10.3909 70.119 11.6711 69.9006 13.0589H69.897Z" fill="#0070E0"/>
<path d="M41.4927 6.77355L37.7948 13.053L35.918 6.82013C35.8887 6.72115 35.8284 6.63437 35.746 6.5728C35.6636 6.51122 35.5636 6.47816 35.461 6.47857H32.124C32.0665 6.47757 32.0096 6.49059 31.9582 6.51652C31.9068 6.54245 31.8624 6.58051 31.8288 6.62745C31.7952 6.67439 31.7734 6.72882 31.7653 6.78609C31.7572 6.84335 31.7629 6.90174 31.7821 6.95627L35.1452 17.4562L32.1038 22.4041C32.0694 22.4585 32.0502 22.5214 32.0483 22.586C32.0465 22.6505 32.062 22.7144 32.0932 22.7708C32.1245 22.8272 32.1703 22.8741 32.2259 22.9064C32.2815 22.9388 32.3447 22.9554 32.4089 22.9546H36.0035C36.1063 22.9548 36.2073 22.9282 36.2968 22.8773C36.3863 22.8265 36.4611 22.7531 36.5139 22.6644L45.9075 7.03151C45.9412 6.9769 45.9596 6.91421 45.9609 6.84998C45.9622 6.78575 45.9462 6.72235 45.9148 6.66643C45.8834 6.61051 45.8376 6.56412 45.7822 6.53212C45.7268 6.50012 45.6639 6.48369 45.6001 6.48454H42.0067C41.9034 6.48357 41.8017 6.50972 41.7115 6.5604C41.6214 6.61109 41.546 6.68456 41.4927 6.77355Z" fill="#003087"/>
<path d="M77.8588 1.40608L75.1284 18.791C75.1185 18.8545 75.1223 18.9194 75.1397 18.9813C75.1571 19.0432 75.1876 19.1006 75.2291 19.1495C75.2706 19.1984 75.3221 19.2377 75.3802 19.2646C75.4382 19.2916 75.5014 19.3056 75.5653 19.3057H78.7966C78.9111 19.307 79.0222 19.2666 79.1095 19.192C79.1968 19.1174 79.2543 19.0135 79.2715 18.8996L82.0018 1.51476C82.0117 1.45123 82.0079 1.38629 81.9905 1.3244C81.9731 1.26252 81.9426 1.20515 81.9011 1.15624C81.8596 1.10733 81.8081 1.06804 81.7501 1.04108C81.692 1.01412 81.6289 1.00011 81.5649 1.00003H78.3336C78.2191 0.998728 78.108 1.03911 78.0207 1.11372C77.9335 1.18834 77.876 1.29217 77.8588 1.40608Z" fill="#0070E0"/>
</g>
<defs>
<clipPath id="clip0_7551_6792">
<rect width="81.012" height="21.9493" fill="white" transform="translate(0.994141 1)"/>
</clipPath>
</defs>
</svg>
